<?xml version="1.0" encoding="UTF-8"?>
<!DOCTYPE svg PUBLIC "-//W3C//DTD SVG 1.1//EN" "http://www.w3.org/Graphics/SVG/1.1/DTD/svg11.dtd">
<!-- Creator: CorelDRAW X8 -->
<svg xmlns="http://www.w3.org/2000/svg" xml:space="preserve" width="5.51181in" height="7.48031in" version="1.1" style="shape-rendering:geometricPrecision; text-rendering:geometricPrecision; image-rendering:optimizeQuality; fill-rule:evenodd; clip-rule:evenodd"
viewBox="0 0 5512 7480"
 xmlns:xlink="http://www.w3.org/1999/xlink">
 <defs>
  <style type="text/css">
   <![CDATA[
    .fil0 {fill:#F6F1EF}
   ]]>
  </style>
 </defs>
 <g id="Layer_x0020_1">
  <metadata id="CorelCorpID_0Corel-Layer"/>
  <g id="_2028174.svg">
   <g>
    <path class="fil0" d="M2018 802c-108,30 -207,53 -401,93l-153 30 -3 17c-5,26 -3,70 5,92 10,28 38,65 66,86l23 17 3 36c5,62 4,644 -2,660 -5,13 -9,16 -42,26 -78,25 -134,32 -257,32 -100,-1 -121,-2 -182,-12 -38,-7 -83,-14 -100,-16 -29,-2 -31,-2 -47,12 -28,24 -28,59 -1,77 6,4 30,10 54,14 44,7 131,7 433,-1 76,-2 109,-1 121,3 33,10 57,45 76,107 16,50 20,86 20,156 0,112 -28,242 -83,386 -12,30 -16,32 -48,23 -31,-9 -63,-37 -106,-92 -97,-123 -213,-189 -333,-190 -207,0 -333,206 -319,522 2,38 8,125 13,194 7,90 10,165 10,270 1,165 -5,211 -37,309 -35,110 -83,181 -138,207 -25,12 -31,13 -85,13 -57,-1 -58,-1 -127,-25 -118,-40 -177,-50 -233,-37 -27,6 -95,39 -139,69 -115,75 -197,199 -237,354 -17,68 -12,103 17,103 19,0 35,-22 48,-69 45,-151 74,-205 154,-285l38 -36 -32 62c-62,119 -88,204 -98,310 -6,68 0,166 12,198 14,33 41,46 62,28 15,-12 18,-33 13,-107 -7,-118 6,-212 40,-291 15,-36 59,-116 61,-113 1,1 -4,16 -12,35 -18,43 -30,84 -40,136 -10,50 -11,168 -3,220 9,55 29,139 36,152 11,22 44,27 63,10 11,-10 11,-25 -6,-102 -24,-121 -27,-218 -8,-306 7,-34 9,-24 3,17 -6,47 -2,145 10,215 10,63 40,195 49,216 10,24 48,36 70,21 13,-9 13,-20 -1,-61 -18,-54 -35,-135 -39,-193 -8,-107 7,-205 58,-366 17,-57 18,-57 50,-43 23,10 42,32 48,55 12,43 2,95 -42,224 -23,68 -27,86 -25,100 5,26 15,45 27,54 27,17 49,-14 98,-136 44,-108 47,-198 10,-270 -8,-17 -8,-18 0,-15 46,21 74,27 112,25 34,-2 45,-4 71,-17 68,-34 131,-117 189,-250 113,-261 147,-513 110,-828 -9,-85 -11,-237 -2,-278 12,-54 26,-93 45,-120 86,-127 260,-67 417,143 44,59 66,80 95,90l15 6 -56 113c-111,222 -169,375 -208,551 -54,237 -59,503 -11,643 32,96 72,155 163,246 75,75 101,111 126,173 43,108 62,227 62,395 0,110 -5,171 -23,288 -38,251 -134,555 -240,758 -22,42 -55,105 -73,141 -33,65 -63,147 -69,187l-3 23 55 0 55 0 66 27 67 27 101 5c56,2 160,3 231,2 116,-2 149,-1 320,12 182,14 200,15 358,12l166 -3 140 21c78,11 142,19 143,18 1,0 -2,-38 -6,-83 -20,-215 -15,-292 36,-566 80,-434 94,-662 55,-899 -11,-70 -41,-179 -66,-248 -105,-279 -339,-567 -678,-831 -94,-73 -115,-97 -139,-157 -9,-23 -11,-36 -11,-81 0,-87 16,-134 104,-311 55,-113 81,-179 102,-267 6,-25 12,-45 13,-45 2,0 17,11 34,24 68,51 137,86 209,107 31,8 48,9 128,9 96,1 137,-3 233,-23 197,-39 411,-131 534,-229 79,-63 135,-169 161,-310 6,-32 8,-68 8,-160 0,-196 -21,-313 -74,-421 -42,-85 -65,-113 -209,-260 -63,-64 -121,-124 -129,-135l-14 -19 53 -26c126,-60 195,-126 246,-234 39,-82 56,-171 40,-209 -9,-23 -30,-40 -47,-40 -23,0 -40,23 -52,70 -24,89 -30,110 -49,151 -24,49 -52,80 -91,100 -15,8 -27,13 -28,11 -2,-1 7,-25 20,-55 39,-91 47,-127 48,-196 0,-67 -5,-86 -31,-104 -29,-21 -73,-14 -92,16 -7,12 -8,19 -5,44 2,17 3,51 3,76 0,46 -4,64 -32,146 -1,4 -7,-8 -13,-25 -32,-100 -90,-173 -186,-230 -49,-30 -69,-35 -92,-24 -27,13 -40,36 -37,66 3,31 14,43 65,70 109,59 160,118 160,185 0,34 -11,78 -20,78 -3,0 -28,-20 -56,-45 -99,-87 -130,-104 -192,-105 -130,-1 -230,123 -212,264 8,57 29,108 52,121l14 9 -22 10c-135,60 -288,120 -310,120 -7,0 -15,-2 -19,-4 -4,-2 -10,-26 -15,-58 -5,-29 -19,-99 -31,-154 -32,-138 -35,-164 -32,-256 4,-82 0,-120 -22,-267 -11,-72 -45,-221 -52,-227 -2,-1 -41,8 -88,22l0 0zm797 538c28,14 76,48 95,70 8,8 11,19 13,43 2,18 7,51 12,74l8 41 -27 44c-55,86 -87,114 -127,110 -24,-3 -47,-20 -68,-51l-16 -23 10 -14c7,-8 10,-19 9,-32 0,-11 0,-27 0,-36 0,-9 -9,-39 -20,-67 -31,-82 -28,-122 10,-157 16,-15 21,-16 45,-16 20,0 34,4 56,14l0 0zm308 280c105,98 182,177 212,221 93,130 141,308 142,517 0,104 -7,151 -30,218 -36,102 -83,152 -219,232 -188,111 -373,167 -550,166 -153,0 -258,-41 -357,-137l-40 -40 9 -65c15,-114 42,-418 42,-478 0,-78 -5,-103 -53,-260 -18,-57 -21,-84 -11,-96 3,-5 29,-21 56,-38 28,-16 85,-50 127,-74 79,-47 150,-83 172,-89 11,-2 12,-1 12,8 0,35 28,77 61,94 67,33 161,-4 261,-103 30,-30 75,-88 91,-118 5,-9 10,-17 11,-17 1,0 30,27 64,59l0 0zm-962 449c34,29 46,72 46,160 0,145 -40,206 -99,153 -25,-21 -35,-44 -40,-92 -9,-86 12,-186 47,-224 14,-14 28,-13 46,3zm-215 71c14,15 19,36 23,96 8,112 -18,174 -63,155 -20,-8 -39,-31 -46,-55 -4,-12 -6,-44 -6,-77 0,-51 1,-61 11,-81 15,-34 31,-49 52,-49 13,0 21,4 29,11l0 0z"/>
    <path class="fil0" d="M3133 4723c-10,12 -10,61 0,200 22,306 24,365 11,514 -6,80 -7,106 -3,153 15,157 70,249 194,321 18,11 34,21 34,22 0,4 -60,158 -86,220 -53,130 -106,246 -151,331 -15,26 -26,50 -26,52 0,4 163,87 170,87 3,0 5,-6 5,-14 0,-51 24,-181 49,-268 24,-83 131,-369 138,-369 2,0 11,4 21,9 22,11 72,23 98,23 15,0 17,1 15,8 -27,68 -160,608 -151,616 3,3 145,32 156,32 3,0 6,-24 7,-69 7,-164 46,-348 113,-543l17 -51 123 -1c156,-2 385,5 545,18 69,5 126,9 126,10 1,1 -1,12 -5,26 -13,52 -40,187 -64,323 -39,219 -46,268 -42,272 3,2 30,11 62,19 55,15 57,15 63,6 11,-14 33,-92 55,-192 50,-228 76,-324 107,-392l17 -37 20 3c27,5 118,30 122,35 3,2 -6,36 -19,74 -28,88 -49,161 -76,270 -21,85 -55,243 -53,245 3,2 112,11 113,9 1,0 6,-27 11,-58 11,-74 23,-131 46,-221 29,-118 78,-279 88,-291 32,-41 38,-52 51,-95 25,-82 37,-95 125,-133 112,-51 199,-125 249,-213 56,-101 91,-240 85,-342 -6,-86 -26,-136 -77,-184 -53,-51 -133,-83 -219,-89 -51,-4 -101,7 -150,31 -95,47 -153,142 -153,254 0,44 6,69 22,101 30,59 120,102 219,103 42,1 45,0 78,-16 43,-21 93,-66 109,-98 17,-34 20,-78 7,-106 -24,-49 -115,-109 -170,-113 -23,-1 -29,0 -48,13 -37,23 -64,67 -64,105 0,25 8,41 30,60 30,26 69,24 84,-5 6,-13 6,-14 -7,-34 -17,-24 -18,-35 -5,-47 24,-23 66,-18 95,11 44,44 26,102 -43,134 -62,30 -165,14 -208,-30 -29,-30 -37,-93 -20,-149 26,-84 92,-125 199,-125 125,1 196,55 226,171 18,71 7,159 -30,238 -53,115 -128,165 -250,165 -70,0 -325,-37 -463,-67 -52,-11 -425,-89 -466,-97 -21,-4 -42,-8 -47,-9 -6,-2 -7,-12 -9,-66 -1,-57 -3,-66 -14,-90l-13 -27 29 -49c30,-52 57,-96 163,-260 99,-154 130,-221 112,-239 -9,-9 -37,-7 -62,5 -28,13 -89,73 -210,204 -45,48 -109,115 -142,148l-60 59 -38 0c-131,-4 -511,-19 -513,-21 -1,-1 -28,-60 -60,-133 -65,-145 -95,-219 -118,-287 -17,-53 -35,-78 -55,-78 -7,0 -16,4 -19,8l0 0zm331 649l9 3 -16 83c-10,46 -18,85 -20,86 -5,6 -33,-14 -60,-42 -25,-26 -57,-75 -70,-109l-8 -16 15 -3c47,-11 125,-12 150,-2l0 0zm128 116c12,23 21,43 19,43 -4,5 -65,24 -68,22 -2,-1 -4,-34 -4,-72l1 -71 16 19c9,10 25,37 36,59zm242 -59c0,5 -56,144 -60,147 -6,7 -43,-16 -75,-49 -31,-30 -32,-32 -24,-40 18,-20 92,-52 134,-57 24,-3 25,-3 25,-1l0 0zm104 28c23,13 62,54 74,76 8,15 8,16 -3,24 -19,16 -58,32 -96,39 -21,4 -38,7 -39,6 -2,-2 26,-132 32,-151 3,-9 10,-7 32,6l0 0z"/>
   </g>
  </g>
 </g>
</svg>
