<?xml version="1.0" encoding="UTF-8"?>
<!DOCTYPE svg PUBLIC "-//W3C//DTD SVG 1.1//EN" "http://www.w3.org/Graphics/SVG/1.1/DTD/svg11.dtd">
<!-- Creator: CorelDRAW X8 -->
<svg xmlns="http://www.w3.org/2000/svg" xml:space="preserve" width="0.393701in" height="0.393701in" version="1.1" style="shape-rendering:geometricPrecision; text-rendering:geometricPrecision; image-rendering:optimizeQuality; fill-rule:evenodd; clip-rule:evenodd"
viewBox="0 0 394 394"
 xmlns:xlink="http://www.w3.org/1999/xlink">
 <defs>
  <style type="text/css">
   <![CDATA[
    .fil0 {fill:#DA4505}
   ]]>
  </style>
 </defs>
 <g id="Layer_x0020_1">
  <metadata id="CorelCorpID_0Corel-Layer"/>
  <g id="_2027886.svg">
   <g>
    <path class="fil0" d="M269 1c-2,2 -3,3 -6,7 -5,6 -7,9 -25,18 -18,9 -25,13 -30,19 -5,5 -9,8 -12,10 -4,3 -9,6 -15,8 -6,2 -8,3 -11,6 -1,2 -2,3 -4,7 -2,3 -3,6 -4,7 -2,3 -6,4 -11,5 -1,0 -8,0 -15,1 -17,0 -24,1 -35,4 -19,5 -37,16 -61,36 -7,6 -18,17 -20,21 -10,11 -16,28 -19,44 0,5 -1,11 -1,14 0,3 1,13 3,22 9,54 25,95 46,114 3,3 6,5 16,12 26,17 44,28 55,31 7,3 11,3 21,3 9,-1 13,-1 20,1 7,1 14,2 22,2 13,1 27,0 54,-3 8,-1 9,-1 15,0 8,0 12,0 15,-1 8,-1 18,-5 31,-13 4,-3 25,-16 33,-22 16,-11 24,-19 31,-34 4,-6 10,-22 15,-33 10,-29 17,-59 17,-84 0,-8 -1,-11 -3,-19 -3,-13 -10,-26 -20,-37 -6,-8 -22,-22 -36,-32 -13,-10 -28,-18 -43,-22 -13,-4 -22,-5 -38,-5 -13,0 -18,-1 -24,-3 -1,-1 -1,-1 -1,-2 0,-2 3,-7 8,-13 6,-7 12,-10 21,-10 8,-1 32,-7 50,-14 12,-5 26,-11 28,-13 0,0 0,-1 0,-2 0,-5 -3,-9 -8,-11 -2,-1 -4,-2 -5,-4 -4,-4 -9,-6 -14,-8 -3,-1 -6,-1 -14,-2 -11,-2 -16,-3 -22,-5 -1,-1 -2,-1 -2,-1 0,0 -1,1 -2,1zm8 7c5,2 7,2 15,3 11,2 15,2 19,4 2,1 3,2 6,5 4,4 6,5 9,6 3,1 5,3 3,5 -1,2 -1,2 -9,5 -20,8 -38,14 -49,16 -2,1 -4,1 -4,1 -1,1 -2,1 -3,2 -2,0 -3,0 -8,0 -6,0 -6,0 -9,1 -8,3 -16,11 -21,20 -3,4 -4,5 -5,5 -1,1 -4,1 -6,0 -1,-1 -2,-1 -2,-1 0,0 -1,1 -1,2 0,1 0,2 -1,3 -1,2 -1,3 0,3 0,1 0,2 -1,2 -2,0 -2,1 -1,3 1,2 0,3 -1,4 -2,1 -2,1 -3,4 -1,3 -1,3 -3,4 -2,0 -3,0 -3,1 0,1 0,1 2,2 2,1 4,3 4,3 0,1 -1,1 -2,1 -16,-1 -26,0 -28,1 -2,1 -2,0 -3,-4 0,-1 -1,-4 -1,-6 -2,-5 -2,-8 -2,-11 1,-3 2,-6 4,-5 0,0 1,0 2,2 1,2 2,3 2,2 1,0 1,-2 1,-3 0,-1 0,-2 0,-3 0,-1 0,-1 1,-2 0,0 1,-1 2,-1 1,-2 2,-2 7,-2 3,0 4,0 4,-1 1,0 1,-2 2,-5 1,-2 2,-3 2,-4l1 -1 -1 0c-1,-1 -4,-2 -6,-2l-3 0 1 -1c1,-1 4,-3 8,-5 5,-2 6,-3 9,-6 3,-3 8,-9 12,-12 5,-4 9,-6 19,-11 11,-5 12,-6 19,-10 2,-2 5,-4 6,-4 2,-1 3,-3 5,-6 3,-6 4,-6 11,-4l0 0zm-95 68c0,1 0,1 0,1 -1,1 -2,1 -2,0 0,-1 1,-1 2,-1zm-9 5c0,0 1,1 1,1 0,1 -2,3 -3,3 0,0 -1,0 -1,-2 0,-1 0,-1 1,-1 1,-1 1,-1 2,-1l0 0zm-8 17c1,1 2,3 2,5 0,1 0,1 -1,2 -1,0 -2,0 -8,0l-8 0 -2 -1c-2,-2 -5,-4 -5,-4 0,-1 2,-2 6,-2 8,-1 14,-1 16,0zm81 1c2,0 2,2 0,2 -2,1 -4,0 -4,-2 0,-1 1,-1 4,0l0 0zm-116 0c6,1 11,3 17,7 5,3 5,3 6,6 1,2 1,2 2,2 1,0 1,1 2,1 0,0 1,1 1,1 4,1 12,7 12,9 0,1 -8,-1 -23,-9 -9,-4 -10,-4 -15,-5 -4,0 -4,0 -9,3 -3,2 -5,4 -7,5 -1,2 -2,3 -2,2 0,0 2,-1 4,-2 3,-2 6,-3 10,-4 5,-1 10,1 16,6 3,2 4,2 5,2 1,0 2,1 5,2 8,3 16,5 25,6 2,0 2,1 2,1 1,1 -3,3 -7,4 -1,0 -2,0 -2,0 -1,1 -6,4 -9,7 -7,6 -13,13 -15,17 -1,2 -1,2 -1,3 1,0 2,0 4,-3 6,-7 10,-10 16,-15 2,-1 7,-4 11,-6 13,-8 16,-9 22,-7 3,1 8,3 21,11 10,7 14,10 19,17 3,3 4,4 4,2 0,-3 -12,-17 -18,-22 -5,-3 -6,-4 -7,-4 -4,0 -9,-2 -9,-4 0,0 0,-1 3,-1 7,0 16,-3 24,-6 2,-1 4,-2 5,-2 2,0 2,0 4,-2 5,-4 11,-5 17,-3 3,1 5,2 8,4 4,3 7,6 12,12 6,7 14,15 18,17 2,1 3,2 3,4 1,1 1,1 2,2 0,0 1,1 1,1 0,1 1,2 2,3 0,1 0,1 0,2 0,1 -1,1 -5,0 -3,-1 -4,-2 -5,-1 0,0 -1,2 -2,4 -1,2 -2,4 -2,5 -2,3 -5,6 -6,6 -1,0 -2,0 -5,-5 -4,-6 -14,-18 -15,-19 -1,0 -3,0 -4,1 -2,1 -2,3 -4,11 -2,7 -3,9 -6,13 -4,6 -10,12 -18,18 -5,3 -6,4 -6,5 0,1 10,4 15,5 3,1 8,1 12,2 5,0 7,1 7,1 3,2 6,13 7,21 0,1 1,4 1,7 2,8 2,16 1,28 -1,7 -3,12 -7,16 -1,2 -2,4 -3,5 -1,2 -1,3 -2,3 -2,1 -7,2 -17,4 -5,1 -15,3 -22,4 -19,3 -20,3 -27,3 -9,0 -13,0 -39,-5 -20,-4 -30,-6 -33,-6 -2,-1 -4,-1 -4,-2 0,-1 1,-1 3,-1 1,0 2,0 2,0 0,-1 -1,-4 -3,-8 -3,-5 -3,-7 -4,-12 -1,-7 -2,-10 -2,-15 0,-7 1,-16 4,-25 1,-6 4,-15 5,-16 1,-1 2,-2 9,-2 9,-1 13,-2 18,-3 4,-2 8,-4 8,-4 0,-1 -1,-2 -4,-4 -10,-6 -18,-15 -22,-23 -2,-4 -3,-7 -4,-13 -1,-2 -2,-5 -2,-6 -1,-1 -2,-2 -4,-2 -1,0 -1,0 -4,3 -11,13 -20,26 -22,33 -1,2 -1,3 -1,7 0,3 0,4 1,5 0,1 0,2 0,2 0,1 -3,2 -5,3 -3,1 -5,3 -6,3l-1 2 1 1c2,1 5,7 6,10 1,3 0,5 -1,8 -1,5 -5,10 -10,14 -1,1 -2,2 -2,3 0,0 2,1 4,0 4,0 8,-2 9,-4 1,-1 2,-5 3,-9 0,-2 0,-3 1,-3 0,-1 0,-2 0,-4 0,-2 1,-4 4,-10 1,-1 5,-4 7,-6 3,-2 4,-3 6,-3 2,-1 3,-1 4,0 3,0 4,0 4,1 0,1 -1,3 -2,5 -3,9 -6,20 -7,28 0,1 -1,5 -1,8 0,3 -1,8 -1,10 -1,8 -1,11 -3,15 -1,2 -3,5 -3,6 0,1 -1,3 -1,3 -1,1 -2,1 -4,0 -1,0 -4,0 -6,-1 -20,-1 -24,-3 -31,-7 -7,-4 -21,-11 -21,-10 0,1 11,25 21,46 4,9 4,10 3,11 -1,1 -7,-3 -13,-9 -1,-1 -3,-3 -3,-4 -1,0 -1,-1 -1,-1 -1,0 -1,0 0,2 0,2 3,5 5,8 3,2 6,4 10,6 4,2 7,5 11,10 3,5 7,8 10,11 3,3 14,9 19,11 3,1 5,2 11,2 6,0 10,1 15,2 3,1 4,1 3,0 0,0 -3,-1 -7,-2 -12,-2 -18,-4 -24,-6 -6,-3 -7,-3 -13,-9 -8,-8 -16,-17 -19,-24 -4,-9 -10,-29 -10,-34 0,-2 1,-4 2,-4 1,0 1,1 2,5 0,4 2,12 4,17 2,6 5,12 10,19 8,12 13,17 18,20 5,3 6,5 3,5 -1,0 -2,0 -3,-1 -1,0 -1,1 1,1 3,2 5,2 5,0 0,0 0,-1 0,-1 2,-1 5,-1 8,-1 3,0 5,1 8,3 2,2 2,2 2,4l0 2 5 -4c5,-5 7,-7 9,-7 3,0 3,1 6,6 1,2 2,3 4,3l1 0 0 3c0,1 0,3 0,3 0,0 3,-1 3,-1 0,-1 0,-1 -1,-1 -1,-2 0,-3 1,-6 1,-2 2,-3 4,-5 2,-2 4,-3 4,-3 2,-1 3,0 6,2 1,1 3,3 4,3 1,1 2,1 2,2 1,2 1,4 1,7 0,2 1,2 1,1 1,-1 1,-1 0,-4 -1,-4 -1,-7 0,-9 1,-2 3,-3 11,-4 2,0 5,0 8,-1 4,-1 5,-1 5,2 1,0 1,5 1,10 0,5 0,10 1,12 0,3 0,3 -1,3 -1,1 -1,1 -5,0 -4,0 -7,-1 -12,-2 -6,-2 -9,-2 -14,-2 -5,0 -9,0 -9,1 1,0 16,3 23,4 6,0 24,1 32,0 10,-1 22,-3 26,-4 0,0 -6,-1 -12,-1 -3,0 -4,0 -5,1 -2,1 -6,2 -12,2 -4,1 -4,1 -5,0 -2,-1 -4,-5 -5,-12 -1,-4 -1,-6 -1,-9 0,-1 1,-2 1,-3 0,-1 1,-2 2,-2 1,0 2,0 4,0 1,1 4,1 6,1 9,1 11,2 12,4 1,1 1,5 0,9l-1 3 1 1c1,1 1,1 1,-4 1,-4 1,-5 4,-6 1,0 3,-2 4,-3 1,-1 2,-2 3,-2 1,-1 1,-1 3,0 2,1 6,5 7,7 1,2 1,2 1,5 0,3 0,5 2,5 0,0 1,-1 4,-6 1,-4 2,-5 3,-6 2,-2 4,-3 6,-3 2,0 2,1 4,2 2,1 3,3 4,4 1,2 2,2 2,2 0,0 1,1 1,1l1 1 0 -1c0,-1 1,-2 2,-2 1,-1 1,-2 2,-3 0,-1 1,-2 2,-3 2,-1 10,0 11,1 2,1 2,3 2,5 -1,1 -1,1 -5,2 -1,0 -4,1 -6,2 -4,1 -9,2 -15,4 -6,1 -6,1 -6,2 0,0 1,0 4,-1 3,-1 7,-1 13,-2 4,0 8,0 8,-1 3,0 16,-7 21,-11 6,-4 9,-7 14,-13 2,-5 4,-6 9,-9 5,-3 10,-6 12,-8 2,-3 4,-6 4,-7 0,-1 0,0 -3,2 -5,6 -9,9 -13,11 -2,1 -2,1 -2,-1 0,-1 0,-3 7,-18 11,-23 18,-37 18,-38 0,0 -3,1 -8,3 -7,3 -9,4 -10,3 0,0 -1,-10 -2,-16 0,-3 0,-6 0,-7 0,-2 -1,-2 -3,-5 0,-1 -1,-2 -1,-4 0,-2 0,-3 1,-5 2,-5 1,-5 -2,-1 -3,3 -3,2 0,9 2,5 3,12 3,17 0,2 0,4 0,4 -1,1 -2,0 -2,-4 -1,-1 -1,-3 -1,-3 -1,-1 -1,-1 -3,-1 -3,0 -5,1 -5,2 -1,0 0,2 1,4 2,4 5,9 5,9 0,1 -2,7 -3,8 -1,2 -2,2 -10,3 -8,1 -12,1 -22,3 -8,1 -13,1 -13,1 -1,-1 0,-2 1,-2 2,-1 3,-2 4,-3 1,-2 1,-5 1,-7 0,0 0,-3 -1,-5 0,-3 0,-8 -1,-11 -1,-19 -3,-31 -8,-43 -1,-3 -2,-5 -2,-6 0,-1 1,-1 8,-2 9,-2 14,-3 16,-5l1 -1 0 -5c0,-5 0,-6 -1,-8 -1,-4 -1,-5 3,-7 2,-1 3,-2 3,-5 0,-1 0,-4 1,-5 0,-1 1,-1 1,-2 1,0 2,-1 3,-2 2,-1 3,-1 3,-1 1,0 3,-1 4,-1 2,0 3,0 4,3 2,3 3,4 9,10 6,6 10,11 14,17 4,6 7,10 8,13 0,2 0,2 2,4 5,5 7,9 8,23 0,3 1,7 1,8 1,10 -1,28 -7,50 -1,3 -1,6 -1,7 0,2 -2,6 -4,10 0,1 -1,3 -1,4 -2,5 -4,10 -10,18 -2,4 -3,6 -4,7 -3,2 -7,4 -8,5 -1,0 -2,1 -3,2 -1,0 -4,2 -6,3 -3,2 -3,2 -3,3 0,0 0,1 -2,2 -2,1 -2,1 -3,1 -2,0 -2,0 -8,4 -8,5 -13,8 -19,11 -6,3 -8,3 -12,3 -3,0 -4,0 -8,-3 -2,-2 -4,-3 -5,-3 -2,-2 -3,-3 -3,-4l1 -1 -3 0c-3,0 -4,0 -5,2 -1,1 -2,2 -3,3 -3,2 -4,4 -5,5 0,1 -1,2 -1,2 -3,3 -12,5 -26,7 -4,1 -6,1 -9,-1 -2,-1 -6,-2 -16,-4 -7,-2 -11,-3 -16,-5 -1,-1 -5,-2 -8,-3 -4,-2 -6,-3 -6,-3 -1,-1 -2,-1 -6,-2 -4,-1 -6,-1 -6,-1 0,0 1,1 2,2 2,2 2,2 -2,6 -2,1 -4,3 -6,4 -2,2 -3,2 -4,2 -4,-1 -13,-4 -20,-8 -6,-3 -15,-8 -22,-12 -1,-1 -1,-1 -2,-1 -1,0 -2,0 -4,-1 -1,-1 -1,-2 -1,-2 0,-1 -1,-1 -4,-3 -2,-1 -4,-2 -5,-3 -1,-1 -4,-2 -5,-3 -4,-2 -8,-6 -11,-10 -3,-4 -6,-12 -9,-17 0,-2 -2,-5 -3,-7 -1,-3 -2,-6 -2,-10 0,-3 0,-3 -1,-4 -1,-2 -5,-20 -7,-33 -1,-11 -1,-18 1,-27 1,-2 2,-6 2,-9 2,-9 4,-15 7,-21 2,-5 4,-8 9,-16 3,-3 6,-9 8,-13 2,-3 5,-7 5,-8 1,-1 6,-6 12,-11 19,-20 24,-24 23,-25 0,0 -1,1 -1,1 -4,2 -3,0 4,-7 5,-5 4,-4 -4,3 -7,7 -11,10 -17,15 -15,13 -16,14 -20,21 -2,2 -4,5 -6,7 -2,2 -4,4 -4,5 -1,1 -2,2 -3,3 -2,2 -3,4 -6,11 -1,3 -3,6 -3,8 -5,9 -14,21 -17,22 0,1 -2,2 -3,3 -2,2 -5,5 -5,5 -1,0 -2,-1 -2,-4 0,-4 -1,-9 -2,-14 -1,-3 -1,-3 -1,-6 1,-8 4,-19 6,-26 2,-4 5,-9 6,-11 1,-1 2,-3 3,-4 1,-3 3,-6 7,-11 6,-6 9,-9 18,-16 3,-2 7,-5 9,-7 2,-1 5,-3 7,-4 4,-3 5,-3 4,-4 0,-1 0,-1 4,-2 2,-1 4,-2 4,-2 0,0 0,0 -1,-1 0,0 0,-1 1,-1 1,0 2,-1 4,-2 3,-1 4,-2 5,-2 1,-1 1,0 2,0 1,1 2,1 5,-2 3,-3 4,-4 6,-4 0,0 2,0 3,0 1,-1 3,-2 4,-2 2,-1 5,-2 7,-4l4 -2 4 1c2,0 5,0 6,0l0 0zm145 2c3,1 6,2 8,3 1,0 3,1 4,2 0,0 2,0 3,0 2,1 3,2 5,4 2,1 4,3 5,3 0,0 0,-1 1,-1 0,-1 2,0 6,2 1,1 3,2 4,2 1,0 1,0 1,1 0,1 0,1 1,2 1,0 2,0 2,1 1,0 2,0 3,0 1,1 1,1 1,2 0,1 0,1 6,5 21,14 34,26 42,40 5,9 9,20 12,35l1 5 -2 9c-2,11 -3,12 -3,11 -1,0 -2,-2 -3,-4 -4,-6 -4,-6 -7,-7 -2,-1 -2,-1 -3,-3 -1,-2 -1,-3 -4,-5 -3,-2 -5,-4 -7,-7 -6,-13 -15,-25 -30,-39 -4,-4 -7,-7 -8,-8 0,-1 -1,-3 -1,-5 -1,-2 -2,-4 -3,-5 -1,-1 -9,-9 -12,-12 -11,-9 -23,-17 -29,-19l-2 -1 -6 0 -6 0 -6 2c-10,6 -12,6 -12,3 0,0 0,-1 0,-1 1,-1 2,-2 2,-3 2,-3 4,-6 6,-7 2,-2 9,-5 12,-6 3,-1 8,-1 13,-2 2,0 2,0 6,3l0 0zm-106 7c1,1 1,3 1,4 -2,1 -3,2 -6,2 -2,0 -3,0 -3,0 -1,1 -2,1 -3,0 0,-1 0,-1 0,-2 1,-2 5,-4 7,-5 2,0 4,0 4,1l0 0zm-78 0c0,0 -1,1 -2,1 -1,0 -1,-1 -1,-1 1,-1 3,-1 3,0l0 0zm140 2c1,0 2,2 2,3 0,1 -1,2 -2,1 -1,0 -2,0 -4,0 -2,0 -2,-1 -2,-1 0,-1 1,-2 2,-3 1,-1 2,-1 4,0l0 0zm-54 11c0,1 0,1 0,3 0,2 0,3 -1,2 -1,0 -3,-4 -3,-4 0,-1 2,-2 4,-1l0 0zm20 5c0,0 0,1 0,1 -1,1 -3,0 -3,0 0,-2 2,-2 3,-1zm11 0c1,1 1,1 0,1 -1,2 -4,1 -3,-1 0,-1 3,-1 3,0zm60 40c3,2 10,9 12,12 4,5 6,11 6,14 0,2 0,2 -1,2 -1,0 -4,0 -5,-1 -1,0 -2,-2 -3,-6 -2,-7 -6,-13 -10,-19 -1,-1 -2,-2 -2,-2 0,-2 1,-1 3,0zm-141 0c1,1 0,3 -3,8 -3,4 -9,16 -10,21 0,2 -1,2 -2,3 -4,2 -8,2 -8,1 0,-1 5,-12 8,-18 4,-7 9,-13 12,-15 2,-1 3,-1 3,0l0 0zm197 2c2,1 4,3 7,6 2,3 2,3 1,3 -1,0 -3,-1 -6,-4 -3,-3 -5,-5 -5,-6 0,-1 1,0 3,1l0 0zm-38 27c1,1 0,2 -1,3 -4,4 -14,8 -22,9 -4,0 -6,-1 -15,-3 -4,-1 -8,-1 -10,-2 -3,0 -4,-1 -3,-1 1,-1 4,-2 8,-1 6,1 14,1 18,0 4,0 9,-1 13,-3 3,-1 5,-2 5,-2 2,-1 6,0 7,0l0 0zm-168 5c3,1 5,1 13,1 8,0 9,0 13,-1 5,0 6,-1 7,0 1,1 -1,2 -5,3 -4,1 -15,2 -25,2l-5 0 -3 -1c-4,-1 -4,-1 -4,-2 0,-1 0,-1 2,-2 1,0 2,0 7,0zm-87 78c1,1 2,2 2,5 0,2 0,3 -1,3 -1,0 -3,-4 -3,-6 -1,-3 0,-4 2,-2zm300 5c1,2 -1,13 -6,29 -4,11 -10,20 -23,33 -5,5 -6,5 -7,5 -1,-1 -1,-1 0,-1 0,-1 0,-1 1,-1 0,0 0,0 0,0 0,-1 0,-1 -1,-1 -2,1 -4,1 -4,1 -1,-1 0,-2 4,-5 4,-3 7,-5 9,-8 3,-3 11,-14 13,-18 6,-10 10,-21 11,-31 0,-2 0,-3 1,-4 0,0 1,0 2,1l0 0zm-245 3c8,2 10,2 14,2 4,0 4,0 5,1 1,1 1,1 0,7 0,4 0,5 0,9 1,4 1,5 -1,5 -2,1 -5,1 -7,0 -3,-1 -4,-3 -9,-10 -2,-3 -4,-5 -5,-6 -2,-3 -2,-3 -2,-5 0,-1 0,-1 -1,-2 -1,0 -1,-1 -1,-2 1,0 1,0 1,0 0,0 3,0 6,1l0 0zm226 0c0,0 0,1 -1,1 0,1 -1,1 -1,2 0,1 0,2 -2,4 -1,1 -3,5 -5,8 -6,8 -9,10 -13,10 -4,0 -4,-2 -1,-14 1,-3 2,-6 2,-7 0,-1 0,-2 2,-2 2,0 8,-1 13,-2 2,-1 4,-1 5,-1 1,0 1,0 1,1l0 0zm-193 0c0,1 0,1 0,1 -1,-1 -1,-1 0,-1 0,0 0,0 0,0zm-4 4c1,1 2,1 3,1 2,0 3,0 6,1 2,0 4,1 5,1 3,1 4,1 4,2 0,0 0,1 -1,3 0,2 0,3 -1,9 0,6 0,7 -1,7 0,1 0,2 -1,3 0,3 -2,4 -6,4 -3,-1 -5,-2 -8,-5 -2,-3 -5,-6 -6,-8 -2,-2 -2,-6 -3,-8 0,-3 1,-9 2,-10 0,0 6,0 7,0l0 0zm164 1c2,0 4,2 5,4 2,3 1,8 -2,13 -1,3 -6,8 -8,10 -2,2 -3,2 -7,3 -4,0 -4,0 -5,-6 -1,-2 -1,-4 -1,-4 -1,-2 -1,-2 0,-3 1,-2 1,-2 1,-5 0,-3 0,-3 -1,-6 -2,-4 -1,-4 3,-4 1,-1 2,-1 3,-1 0,0 1,-1 2,-1 1,0 4,0 7,-1 1,0 2,1 3,1l0 0zm-247 5c1,1 2,4 3,6 2,3 2,4 2,5 0,1 0,2 0,2 -1,0 -3,-2 -4,-4 -1,-2 -4,-10 -4,-11 0,-1 1,0 3,2l0 0zm114 -1c7,1 14,3 15,3 0,1 0,2 -1,4 0,2 0,4 0,9 0,3 0,7 0,7 -1,1 -4,3 -6,4 -2,1 -11,3 -13,3 -1,0 -2,0 -3,-3 -3,-3 -3,-4 -4,-14 0,-6 0,-11 1,-13l0 -1 3 0c2,1 5,1 8,1l0 0zm110 0c1,2 1,22 -1,25 0,1 -3,4 -3,4 -1,0 -5,0 -7,0 -5,-1 -10,-3 -12,-5l-1 -1 0 -6c0,-5 0,-7 -1,-10 -1,-5 -1,-5 14,-7 8,-1 11,-1 11,0l0 0zm-86 4c8,1 21,4 22,5 1,0 2,2 2,6 1,8 0,15 -3,17 0,1 -1,1 -2,1 -1,0 -4,1 -6,1 -5,1 -10,1 -12,0 -2,-1 -2,-1 -4,-5 -1,-2 -2,-5 -3,-6 -2,-3 -3,-5 -3,-9 0,-4 1,-9 2,-10 0,-1 0,-1 7,0l0 0zm56 1c1,1 1,3 2,6 2,7 2,7 -1,12 -1,2 -2,5 -3,7 -2,4 -3,5 -9,5 -3,0 -4,0 -6,-1 -1,0 -4,0 -5,-1 -6,-1 -7,-2 -7,-14 1,-7 1,-10 2,-10 2,-1 13,-3 22,-5 0,0 2,0 3,0 2,0 2,0 2,1l0 0zm-75 64c0,0 0,1 0,1 0,0 -1,-1 -1,-1 0,0 0,0 1,0 0,0 0,0 0,0zm29 12c0,1 0,1 -2,2 -1,0 -2,-1 -1,-2 0,0 2,0 3,0l0 0z"/>
    <path class="fil0" d="M270 9c-1,1 -2,3 -3,5 0,2 0,5 0,5 0,0 1,0 2,-1 2,-1 7,-2 13,-3l3 0 2 1c0,1 2,1 3,2 1,0 3,1 4,1 1,1 4,1 6,2 2,0 4,1 6,1 1,0 3,1 5,1 2,0 3,0 4,0 0,1 1,3 1,4 -1,0 -1,0 -6,0l-5 0 0 1c-1,1 -1,2 -1,2 0,1 3,2 6,2 2,0 3,0 3,1 1,0 1,1 1,1 -2,1 0,1 5,0 5,-1 9,-3 9,-3 0,-1 -2,-3 -5,-4 -3,-2 -4,-2 -5,-2 -2,0 -2,0 -2,-3 0,-2 -1,-3 -5,-4 -3,-2 -6,-3 -10,-3 -2,0 -4,-1 -5,-1 -2,-1 -3,-1 -9,-1 -5,-1 -6,-1 -10,-3 -4,-1 -7,-2 -7,-1l0 0z"/>
    <path class="fil0" d="M290 27c-4,2 -7,3 -10,2 -2,0 -2,0 -2,1 0,1 7,4 9,3 1,0 4,0 7,-1 3,-1 6,-1 6,-1 1,-1 -1,-2 -4,-5 -1,-2 -2,-1 -6,1l0 0z"/>
    <path class="fil0" d="M195 214c-1,1 -1,2 -1,6 -1,5 -1,6 -5,11 -1,2 -2,5 -3,7 -1,1 -2,3 -2,4 -2,2 -6,7 -6,7 -1,0 -2,0 -4,0 -4,1 -5,1 -7,2 -1,1 -2,1 -3,1 -2,-1 -3,-1 -4,0 0,0 0,0 0,1 1,0 1,1 1,1 1,1 2,3 4,4 2,3 3,3 4,6 1,2 2,3 2,4 0,1 1,1 2,0 3,-1 3,-1 5,0 3,1 6,2 9,2 1,0 1,-1 2,-1 1,-2 3,-2 5,-1 0,1 1,1 2,1 0,0 1,0 2,-1 1,0 2,-1 3,0 1,0 1,0 1,1 0,0 0,0 4,0 6,0 9,-1 9,-3 0,-4 -8,-22 -15,-33 -1,-2 -3,-5 -3,-5 -1,-2 0,-5 0,-9 1,-2 1,-4 1,-5 0,-1 -2,-1 -3,0l0 0z"/>
   </g>
  </g>
 </g>
</svg>
